<svg width="91" height="60" viewBox="0 0 91 60" fill="none" xmlns="http://www.w3.org/2000/svg">
<g clip-path="url(#clip0_481_1073)">
<rect x="0.185547" y="8" width="90" height="45" fill="white"/>
<path d="M84.1855 59.9999H6.18555C4.59425 59.9999 3.06812 59.3677 1.94291 58.2425C0.817688 57.1173 0.185547 55.5912 0.185547 53.9999L0.185547 28.7599H4.50805L5.48305 26.3999H7.66555L8.63805 28.7499H17.143V26.9624L17.903 28.7624H22.318L23.078 26.9324V28.7574H44.2105V24.8974H44.6105C44.8955 24.9074 44.978 24.9324 44.978 25.4074V28.7624H55.9105V27.8649C57.028 28.4324 58.3455 28.7649 59.743 28.7649L59.9805 28.7624H59.968H64.568L65.553 26.4124H67.7355L68.6981 28.7624H77.563V26.5274L78.903 28.7624H85.993V14.0024H78.9755V15.7449L77.993 14.0024H70.778V15.7449L69.8755 14.0024H60.133C58.657 13.9278 57.1863 14.2316 55.8605 14.8849L55.913 14.8624V14.0024H49.193V14.8624C48.3796 14.2213 47.3523 13.9146 46.3205 14.0049H46.3355H21.778L20.1305 17.8174L18.438 14.0049H10.703V15.7474L9.85055 14.0049H3.25055L0.193047 21.0049V6.00488C0.193047 4.41358 0.825188 2.88746 1.95041 1.76224C3.07562 0.637024 4.60175 0.00488281 6.19305 0.00488281H84.193C85.7843 0.00488281 87.3105 0.637024 88.4357 1.76224C89.5609 2.88746 90.193 4.41358 90.193 6.00488V32.2049H85.5106C85.4355 32.1999 85.3455 32.1999 85.258 32.1999C84.173 32.1999 83.1655 32.5249 82.3255 33.0824L82.3455 33.0699V32.2049H75.4205C74.3387 32.1451 73.2683 32.4526 72.383 33.0774L72.398 33.0674V32.2024H60.033V33.0674C59.0208 32.4965 57.8776 32.1985 56.7155 32.2024H56.618H56.623H48.4655V33.0674C47.3998 32.3847 46.1351 32.0809 44.8755 32.2049L44.898 32.2024H35.7705L33.6805 34.4624L31.7255 32.2024H18.0905V46.9724H31.4705L33.623 44.6774L35.6505 46.9724H43.898V43.5149H45.048C46.1538 43.5581 47.2567 43.3734 48.288 42.9724L48.233 42.9924V46.9774H55.033V43.1299H55.3605C55.7755 43.1299 55.818 43.1449 55.818 43.5649V46.9799H76.483L76.7355 46.9849C77.9205 46.9849 79.0255 46.6299 79.9455 46.0224L79.923 46.0349V46.9799H86.478L86.7905 46.9849C88.018 46.9849 89.1855 46.7324 90.2455 46.2749L90.188 46.2974V54.0024C90.188 55.5937 89.5559 57.1198 88.4307 58.245C87.3055 59.3702 85.7794 60.0024 84.188 60.0024L84.1855 59.9999ZM52.948 44.9024H50.403V34.3149H56.243C57.2978 34.2171 58.3599 34.3946 59.3255 34.8299L59.2855 34.8149C60.068 35.2449 60.5905 36.0649 60.5905 37.0049L60.5855 37.1724V37.1649L60.588 37.2599C60.588 38.4749 59.8555 39.5199 58.8055 39.9749L58.7855 39.9824C59.288 40.1624 59.708 40.4699 60.0205 40.8674L60.0256 40.8724C60.3785 41.4567 60.5263 42.1421 60.4455 42.8199L60.448 42.8049V44.8999H57.9081V43.5749C58.0283 42.8535 57.8836 42.1129 57.5005 41.4899L57.508 41.5024C57.2442 41.3021 56.9424 41.1574 56.621 41.077C56.2995 40.9967 55.9652 40.9823 55.638 41.0349L55.653 41.0324H52.948V44.8999V44.9024ZM52.948 36.5024V38.8799H56.023C56.4573 38.92 56.8943 38.8423 57.288 38.6549L57.273 38.6624C57.4339 38.5585 57.5662 38.416 57.6579 38.2479C57.7496 38.0798 57.7978 37.8914 57.798 37.6999L57.7955 37.6424C57.8079 37.4513 57.7659 37.2631 57.6743 37.095C57.5827 36.9268 57.4453 36.7881 57.278 36.6949L57.273 36.6924C56.8936 36.5227 56.4769 36.4538 56.063 36.4924H56.073L52.948 36.5024ZM30.3855 44.8999H20.368V34.3149H30.543L33.6555 37.7849L36.873 34.3149H44.9556C47.8256 34.3149 49.2205 35.4574 49.2205 37.8024C49.2205 40.1899 47.778 41.3499 44.8205 41.3499H41.6581V44.8974H36.7405L33.6255 41.3999L30.388 44.8999H30.3855ZM39.138 35.4499L35.253 39.6249L39.138 43.9349V35.4499ZM22.8905 40.5874V42.6924H29.1105L31.9855 39.5874L29.2205 36.5024H22.888V38.4274H28.443V40.5849L22.8905 40.5874ZM41.6581 36.5049V39.1999H44.9255C45.9255 39.1999 46.5005 38.6899 46.5005 37.7999C46.5005 36.9499 45.9655 36.5024 44.953 36.5024L41.6581 36.5049ZM86.753 44.9049H81.868V42.6299H86.733C87.0971 42.6801 87.4662 42.5849 87.7605 42.3649L87.758 42.3674C87.852 42.2802 87.9269 42.1746 87.9781 42.0572C88.0293 41.9398 88.0556 41.813 88.0555 41.6849V41.6449C88.0557 41.5183 88.0283 41.3933 87.9752 41.2784C87.9221 41.1636 87.8446 41.0617 87.748 40.9799C87.4894 40.7929 87.1702 40.7091 86.853 40.7449H86.858L86.3905 40.7299C84.1055 40.6699 81.5181 40.5999 81.5181 37.4674C81.5181 35.9424 82.4731 34.3149 85.1456 34.3149H90.188V36.5699H85.5755C85.2193 36.53 84.8594 36.6016 84.5455 36.7749L84.5555 36.7699C84.4321 36.8511 84.3329 36.9641 84.2682 37.097C84.2035 37.2298 84.1758 37.3776 84.188 37.5249V37.5224V37.5499C84.188 37.7183 84.2412 37.8825 84.34 38.019C84.4387 38.1554 84.578 38.2572 84.738 38.3099L84.743 38.3124C85.06 38.4101 85.3919 38.4507 85.723 38.4324H85.7156L87.0881 38.4674C88.1226 38.3641 89.1563 38.6722 89.9655 39.3249L89.958 39.3199C90.0331 39.3799 90.098 39.4449 90.1555 39.5174L90.158 39.5199L90.188 43.5499C89.7676 44.0412 89.2328 44.4215 88.6307 44.6573C88.0286 44.8932 87.3778 44.9774 86.7355 44.9024L86.753 44.9049ZM76.8805 44.9049H71.9505V42.6299H76.8555C77.2226 42.6779 77.594 42.5831 77.8931 42.3649L77.888 42.3674C77.9814 42.2799 78.0558 42.1742 78.1065 42.0568C78.1573 41.9394 78.1833 41.8128 78.183 41.6849V41.6599C78.1829 41.5312 78.1554 41.404 78.1024 41.2868C78.0494 41.1696 77.9721 41.0649 77.8755 40.9799C77.6122 40.7927 77.2891 40.7091 76.968 40.7449H76.973L76.508 40.7299C74.2305 40.6699 71.6455 40.5999 71.6455 37.4674C71.6455 35.9424 72.5956 34.3149 75.263 34.3149H80.333V36.5699H75.693C75.3392 36.5304 74.9818 36.6021 74.6705 36.7749L74.6805 36.7699C74.5492 36.8603 74.4447 36.9844 74.3782 37.1293C74.3116 37.2741 74.2853 37.4342 74.3022 37.5928C74.3191 37.7513 74.3785 37.9023 74.4742 38.0298C74.5698 38.1574 74.6981 38.2567 74.8456 38.3174L74.8505 38.3199C75.1717 38.4184 75.5077 38.459 75.843 38.4399H75.8355L77.198 38.4749C78.2381 38.3747 79.2764 38.6831 80.093 39.3349L80.0855 39.3274C80.3603 39.6302 80.5692 39.9868 80.6992 40.3745C80.8291 40.7622 80.8773 41.1726 80.8405 41.5799V41.5674C80.8481 43.7749 79.5105 44.8999 76.873 44.8999L76.8805 44.9049ZM70.4355 44.9049H61.9855V34.3124H70.428V36.4999H64.5105V38.4249H70.2905V40.5824H64.5105V42.6874L70.4355 42.6974V44.8974V44.9049ZM75.3605 26.6899H70.208L69.223 24.3299H63.968L63.013 26.6899H60.053C58.7237 26.76 57.4147 26.3411 56.373 25.5124L56.3855 25.5199C55.8906 24.9737 55.515 24.3303 55.2826 23.6309C55.0501 22.9314 54.966 22.1912 55.0355 21.4574L55.033 21.4774C54.9687 20.7301 55.0569 19.9775 55.2924 19.2654C55.528 18.5532 55.9058 17.8964 56.403 17.3349L56.398 17.3399C56.923 16.8808 57.5369 16.5348 58.2014 16.3231C58.8659 16.1115 59.5668 16.0389 60.2605 16.1099L60.2405 16.1074H62.6905V18.3649H60.2905C59.9394 18.3196 59.5825 18.3524 59.2455 18.4609C58.9084 18.5694 58.5994 18.7508 58.3405 18.9924L58.343 18.9899C57.8085 19.6744 57.549 20.5339 57.6155 21.3999V21.3874C57.5359 22.2771 57.7859 23.165 58.318 23.8824L58.3105 23.8724C58.8075 24.2785 59.4437 24.4742 60.083 24.4174H60.073H61.208L64.7855 16.0924H68.5855L72.868 26.0924V16.0924H76.7206L81.1655 23.4624V16.0924H83.7655V26.6724H80.1555L75.3555 18.7274V26.6724L75.3605 26.6899ZM66.613 17.8949L64.8705 22.1149H68.363L66.613 17.8949ZM42.1155 26.6849H39.5855V16.0999H45.4055C46.468 15.9896 47.5404 16.1702 48.508 16.6224L48.4705 16.6074C48.8596 16.8226 49.184 17.138 49.41 17.5209C49.636 17.9038 49.7553 18.3403 49.7555 18.7849L49.7505 18.9599V18.9524V19.0299C49.7507 19.6073 49.5843 20.1724 49.2712 20.6576C48.9582 21.1427 48.5117 21.5272 47.9855 21.7649L47.9655 21.7724C48.468 21.9624 48.8905 22.2674 49.213 22.6574L49.218 22.6624C49.5747 23.2488 49.7219 23.9389 49.6355 24.6199L49.638 24.6049V26.6824H47.0855L47.0755 25.3474V25.1474C47.1664 24.4946 47.0219 23.8309 46.668 23.2749L46.6755 23.2874C46.4108 23.0929 46.1101 22.9527 45.7908 22.875C45.4716 22.7974 45.1401 22.7837 44.8155 22.8349L44.8305 22.8324H42.118V26.6824L42.1155 26.6849ZM42.1155 18.3024V20.6524H45.1855C45.6192 20.6994 46.0573 20.6214 46.448 20.4274L46.4355 20.4324C46.5957 20.335 46.7281 20.1981 46.82 20.0348C46.912 19.8715 46.9604 19.6873 46.9605 19.4999L46.958 19.4299C46.9708 19.2399 46.9276 19.0529 46.8339 18.8872C46.7401 18.7215 46.5999 18.5868 46.4305 18.4999L46.4255 18.4974C46.0451 18.3342 45.6308 18.2655 45.218 18.2974H45.2255L42.1155 18.3024ZM15.3255 26.6849H10.1855L9.21305 24.3249H3.94305L2.96305 26.6849H0.213047L4.74555 16.0999H8.50305L12.8055 26.1174V16.0999H16.933L20.243 23.2774L23.2855 16.0999H27.498V26.6799H24.898L24.893 18.3999L21.2255 26.6824H19.0055L15.328 18.3874V26.6824L15.3255 26.6849ZM6.56555 17.8949L4.84305 22.1149H8.29805L6.56555 17.8949ZM53.7855 26.6824H51.2056V16.0999H53.788V26.6799L53.7855 26.6824ZM37.8205 26.6824H29.3855V16.0999H37.8355V18.2999H31.9155V20.2074H37.693V22.3799H31.9105V24.4949H37.8305V26.6799L37.8205 26.6824Z" fill="#019CCC"/>
</g>
<defs>
<clipPath id="clip0_481_1073">
<rect width="90" height="60" fill="white" transform="translate(0.185547)"/>
</clipPath>
</defs>
</svg>
