<svg width="20" height="22" viewBox="0 0 20 22" fill="none" xmlns="http://www.w3.org/2000/svg">
<path fill-rule="evenodd" clip-rule="evenodd" d="M3.79147 0.861688L16.1252 0.857117C16.5083 0.857038 16.8773 1.00126 17.1589 1.26105C17.4404 1.52085 17.6138 1.87716 17.6444 2.25902L19.0067 19.0194C19.023 19.2189 18.9998 19.4197 18.9384 19.6102C18.8771 19.8008 18.7788 19.9774 18.6491 20.1299C18.5195 20.2825 18.3611 20.408 18.183 20.4993C18.0048 20.5906 17.8104 20.6459 17.6109 20.6621L17.489 20.6666H2.50233C2.09819 20.6666 1.7106 20.5061 1.42483 20.2203C1.13906 19.9346 0.978516 19.547 0.978516 19.1428L0.983087 19.0255L2.27223 2.26816C2.30178 1.88548 2.47466 1.52805 2.75632 1.2673C3.03797 1.00656 3.40765 0.8617 3.79147 0.861688Z" stroke="#0D0E13" stroke-linecap="round" stroke-linejoin="round"/>
<path d="M14.5706 6.95233V7.93519C14.5706 9.619 11.683 9.99995 9.99916 9.99995C8.31535 9.99995 5.42773 9.39805 5.42773 7.71424V6.95233" stroke="#0D0E13" stroke-linecap="round" stroke-linejoin="round"/>
</svg>
