<svg width="101" height="60" viewBox="0 0 101 60" fill="none" xmlns="http://www.w3.org/2000/svg">
<rect x="5.18555" y="11" width="89" height="21" fill="white"/>
<path d="M6.63128 0C4.17682 0 2.18555 1.9886 2.18555 4.44268V55.5573C2.18555 58.0117 4.17701 60 6.63128 60H93.2842C95.7387 60 97.7269 58.0114 97.7269 55.5573V4.44268C97.7269 1.98831 95.7385 0 93.2842 0H6.63128ZM52.4851 16.8899C52.5499 16.8883 52.614 16.8899 52.6792 16.8899C56.8514 16.8899 60.2329 20.2708 60.2329 24.4437C60.2329 28.6165 56.8514 32.0004 52.6792 32.0004C48.507 32.0004 45.1255 28.6165 45.1255 24.4437C45.1255 20.3361 48.403 16.9934 52.4851 16.8899ZM28.6415 17.2213C30.1391 17.2213 31.5118 17.7354 32.6573 18.7381L31.263 20.5653C30.5684 19.7864 29.9115 19.4576 29.1133 19.4576C27.9641 19.4576 27.1279 20.1106 27.1279 20.9713C27.1279 21.7095 27.5974 22.1022 29.1969 22.694C32.2284 23.803 33.126 24.7863 33.126 26.9576C33.126 29.6036 31.1844 31.4451 28.4146 31.4451C26.3871 31.4451 24.9102 30.6443 23.6824 28.8416L25.4051 27.1845C26.0184 28.3716 27.0421 29.0058 28.3131 29.0058C29.5019 29.0058 30.3822 28.1873 30.3822 27.0801C30.3822 26.5061 30.1176 26.0129 29.585 25.6648C29.3169 25.5001 28.786 25.2536 27.743 24.8856C25.2398 23.9841 24.381 23.0216 24.381 21.1385C24.381 18.9017 26.2239 17.2213 28.6415 17.2213ZM41.1785 17.2213C42.325 17.2213 43.2894 17.4664 44.4596 18.0573V21.1804C43.3511 20.101 42.3873 19.6487 41.1157 19.6487C38.6161 19.6487 36.6521 21.7119 36.6521 24.3243C36.6521 27.0802 38.5568 29.0177 41.241 29.0177C42.4495 29.0177 43.3939 28.5898 44.4596 27.5279V30.6509C43.2476 31.2192 42.2633 31.4451 41.1157 31.4451C37.0573 31.4451 33.9053 28.3419 33.9053 24.3421C33.9053 20.3855 37.1406 17.2213 41.1784 17.2213H41.1785ZM7.46421 17.4453H11.4053C15.7599 17.4453 18.7948 20.2311 18.7948 24.2317C18.7948 26.2265 17.8658 28.1558 16.2959 29.4357C14.9742 30.5161 13.4692 31.0002 11.3845 31.0002H7.46421V17.4453ZM20.016 17.4453H22.5717V31.0002H20.016V17.4453ZM59.1223 17.4453H62.0273L65.6639 26.6143L69.3482 17.4452H72.2324L66.3416 31.4451H64.9085L59.1223 17.4453ZM73.3429 17.4453H80.8967V19.7412H76.0032V22.7508H80.7176V25.0468H76.0032V28.7042H80.8967V31.0002H73.3429V17.4453ZM82.7866 17.4453H86.7457C89.8265 17.4453 91.5944 18.9082 91.5944 21.4461C91.5944 23.5215 90.4864 24.8833 88.4743 25.2887L92.7856 31.0001H89.4984L85.8022 25.5543H85.4528V31.0001H82.7866V17.4454V17.4453ZM85.4708 19.5801V23.7062H86.2441C87.9333 23.7062 88.8296 22.9705 88.8296 21.6013C88.8296 20.2758 87.9333 19.5801 86.2858 19.5801H85.4708ZM10.1483 19.7293V28.7162H10.8679C12.6048 28.7162 13.7048 28.3878 14.5492 27.6354C15.4795 26.8193 16.0361 25.5157 16.0361 24.2108C16.0361 22.909 15.4795 21.6445 14.5492 20.828C13.6616 20.035 12.6047 19.7293 10.868 19.7293H10.1483ZM96.5625 32.5498C96.5625 32.5498 96.5893 47.1076 96.5297 54.7601C96.5244 55.4299 96.2793 56.4901 95.5175 57.3726C94.7559 58.2551 93.5711 58.668 92.8633 58.6654C92.1555 58.6629 23.6824 58.6654 23.6824 58.6654C70.6784 50.558 96.5625 32.5498 96.5625 32.5498Z" fill="#F68121"/>
</svg>
