<svg width="24" height="20" viewBox="0 0 24 20" fill="none" xmlns="http://www.w3.org/2000/svg">
<path fill-rule="evenodd" clip-rule="evenodd" d="M1.33398 3.9048V16.0953C1.33398 16.9036 1.65507 17.6787 2.22661 18.2503C2.79815 18.8218 3.57332 19.1429 4.3816 19.1429H19.6197C20.428 19.1429 21.2032 18.8218 21.7747 18.2503C22.3462 17.6787 22.6673 16.9036 22.6673 16.0953V3.9048C22.6673 3.09652 22.3462 2.32134 21.7747 1.7498C21.2032 1.17827 20.428 0.857178 19.6197 0.857178H4.3816C3.57332 0.857178 2.79815 1.17827 2.22661 1.7498C1.65507 2.32134 1.33398 3.09652 1.33398 3.9048Z" stroke="#2B2F3F" stroke-linecap="round" stroke-linejoin="round"/>
<path d="M4.38086 5.42859L11.9999 10L19.619 5.42859" stroke="#2B2F3F" stroke-linecap="round" stroke-linejoin="round"/>
</svg>
