<svg width="78" height="60" viewBox="0 0 78 60" fill="none" xmlns="http://www.w3.org/2000/svg">
<g clip-path="url(#clip0_481_1065)">
<path d="M14.0313 59.7019V55.7308C14.0313 54.2081 13.1045 53.2156 11.5159 53.2156C10.7217 53.2156 9.86118 53.4803 9.2654 54.3408C8.80229 53.6127 8.14048 53.2156 7.14761 53.2156C6.4855 53.2156 5.824 53.414 5.29425 54.1421V53.3479H3.9043V59.7019H5.29425V56.1939C5.29425 55.0689 5.89003 54.5392 6.81686 54.5392C7.74309 54.5392 8.20681 55.135 8.20681 56.1939V59.7019H9.59676V56.1939C9.59676 55.0689 10.2583 54.5392 11.1188 54.5392C12.0456 54.5392 12.5087 55.135 12.5087 56.1939V59.7019H14.0313ZM34.6156 53.3479H32.3654V51.4285H30.9755V53.3479H29.7179V54.6052H30.9752V57.5178C30.9752 58.9741 31.5709 59.8343 33.1596 59.8343C33.7554 59.8343 34.4169 59.6359 34.8806 59.3712L34.4832 58.1796C34.0861 58.4443 33.623 58.5107 33.2919 58.5107C32.6301 58.5107 32.3654 58.1136 32.3654 57.4515V54.6052H34.6156V53.3479ZM46.3973 53.2153C45.6031 53.2153 45.0736 53.6127 44.7426 54.1421V53.3479H43.3526V59.7019H44.7426V56.1278C44.7426 55.0689 45.2057 54.4732 46.0662 54.4732C46.3309 54.4732 46.662 54.5395 46.9267 54.6055L47.3238 53.2819C47.0591 53.2156 46.662 53.2156 46.3973 53.2156V53.2153ZM28.5926 53.8774C27.9305 53.414 27.004 53.2156 26.0111 53.2156C24.4228 53.2156 23.3639 54.0097 23.3639 55.2673C23.3639 56.3265 24.1581 56.922 25.548 57.1207L26.2098 57.187C26.938 57.3191 27.3351 57.5178 27.3351 57.8488C27.3351 58.312 26.8056 58.643 25.8788 58.643C24.9522 58.643 24.2241 58.312 23.7607 57.9812L23.0989 59.0401C23.827 59.5695 24.8199 59.8343 25.8124 59.8343C27.6658 59.8343 28.725 58.9741 28.725 57.7825C28.725 56.6573 27.8645 56.0615 26.5406 55.8631L25.8788 55.7968C25.283 55.7305 24.8199 55.5984 24.8199 55.2013C24.8199 54.7379 25.283 54.4732 26.0111 54.4732C26.8056 54.4732 27.5998 54.8039 27.9969 55.0026L28.5926 53.8774ZM65.5258 53.2156C64.7313 53.2156 64.2019 53.6127 63.8708 54.1421V53.3479H62.4809V59.7019H63.8708V56.1278C63.8708 55.0689 64.3342 54.4732 65.1945 54.4732C65.4595 54.4732 65.7905 54.5395 66.0553 54.6055L66.4523 53.2819C66.1876 53.2156 65.7905 53.2156 65.5258 53.2156ZM47.7872 56.5249C47.7872 58.4443 49.1108 59.8343 51.1629 59.8343C52.0894 59.8343 52.7512 59.6359 53.413 59.1064L52.7512 57.9812C52.2218 58.3783 51.6923 58.5767 51.0966 58.5767C49.9713 58.5767 49.1772 57.7825 49.1772 56.5249C49.1772 55.3337 49.9713 54.5392 51.0966 54.4732C51.6923 54.4732 52.2218 54.6716 52.7512 55.0689L53.413 53.9437C52.7512 53.414 52.0894 53.2156 51.1629 53.2156C49.1108 53.2156 47.7872 54.6055 47.7872 56.5249ZM60.6278 56.5249V53.3479H59.2379V54.1421C58.7744 53.5466 58.1126 53.2156 57.2521 53.2156C55.4651 53.2156 54.0752 54.6055 54.0752 56.5249C54.0752 58.4443 55.4651 59.8343 57.2521 59.8343C58.1787 59.8343 58.8408 59.5035 59.2379 58.9077V59.7019H60.6278V56.5249ZM55.5311 56.5249C55.5311 55.3997 56.2593 54.4732 57.4505 54.4732C58.5758 54.4732 59.3702 55.3337 59.3702 56.5249C59.3702 57.6501 58.5758 58.5767 57.4505 58.5767C56.2593 58.5104 55.5311 57.6501 55.5311 56.5249ZM38.9181 53.2156C37.0647 53.2156 35.7408 54.5392 35.7408 56.5249C35.7408 58.5107 37.0644 59.8343 38.9841 59.8343C39.9106 59.8343 40.8375 59.5695 41.5656 58.9741L40.9035 57.9812C40.374 58.3783 39.7122 58.643 39.0504 58.643C38.1899 58.643 37.3294 58.2459 37.1307 57.1204H41.8303V56.5913C41.8967 54.5392 40.7054 53.2156 38.9181 53.2156ZM38.9181 54.4068C39.7783 54.4068 40.3743 54.9366 40.5064 55.9294H37.1971C37.3294 55.0689 37.9252 54.4068 38.9181 54.4068ZM73.4021 56.5249V50.8328H72.0121V54.1421C71.5487 53.5466 70.8869 53.2156 70.0264 53.2156C68.2394 53.2156 66.8494 54.6055 66.8494 56.5249C66.8494 58.4443 68.2394 59.8343 70.0264 59.8343C70.9532 59.8343 71.6151 59.5035 72.0121 58.9077V59.7019H73.4021V56.5249ZM68.3057 56.5249C68.3057 55.3997 69.0335 54.4732 70.2251 54.4732C71.3503 54.4732 72.1445 55.3337 72.1445 56.5249C72.1445 57.6501 71.3503 58.5767 70.2251 58.5767C69.0335 58.5104 68.3057 57.6501 68.3057 56.5249ZM21.8413 56.5249V53.3479H20.4513V54.1421C19.9879 53.5466 19.3261 53.2156 18.4656 53.2156C16.6786 53.2156 15.2886 54.6055 15.2886 56.5249C15.2886 58.4443 16.6786 59.8343 18.4656 59.8343C19.3924 59.8343 20.0542 59.5035 20.4513 58.9077V59.7019H21.8413V56.5249ZM16.6786 56.5249C16.6786 55.3997 17.4067 54.4732 18.598 54.4732C19.7232 54.4732 20.5177 55.3337 20.5177 56.5249C20.5177 57.6501 19.7232 58.5767 18.598 58.5767C17.4067 58.5104 16.6786 57.6501 16.6786 56.5249Z" fill="white"/>
<path d="M28.1309 5.09644H48.9801V42.5591H28.1309V5.09644Z" fill="#FF5F00"/>
<path d="M29.454 23.8278C29.454 16.2163 33.028 9.46492 38.5215 5.09638C34.4843 1.9194 29.3879 0 23.8281 0C10.6562 0 0 10.6562 0 23.8278C0 36.9992 10.6562 47.6557 23.8278 47.6557C29.3876 47.6557 34.484 45.7363 38.5215 42.559C33.028 38.2568 29.454 31.4394 29.454 23.8278Z" fill="#EB001B"/>
<path d="M77.1094 23.8278C77.1094 36.9992 66.4532 47.6557 53.2816 47.6557C47.7218 47.6557 42.6254 45.7363 38.5879 42.559C44.1477 38.1908 47.6557 31.4394 47.6557 23.8278C47.6557 16.2163 44.0814 9.46492 38.5879 5.09638C42.6251 1.9194 47.7218 0 53.2816 0C66.4532 0 77.1094 10.7225 77.1094 23.8278Z" fill="#F79E1B"/>
</g>
<defs>
<clipPath id="clip0_481_1065">
<rect width="77.1859" height="60" fill="white"/>
</clipPath>
</defs>
</svg>
