<svg width="81" height="60" viewBox="0 0 81 60" fill="none" xmlns="http://www.w3.org/2000/svg">
<rect x="5.18555" y="16" width="69" height="26" fill="white"/>
<path d="M26.1364 30.2946C26.1364 31.9286 24.8373 33.1741 23.19 33.1741C21.9579 33.1741 21.0472 32.4777 21.0472 31.1652C21.0472 29.5312 22.3195 28.2187 23.9534 28.2187C25.1989 28.2187 26.1364 28.9821 26.1364 30.2946ZM11.9668 23.7991H11.3373C11.1364 23.7991 10.9355 23.933 10.9088 24.1607L10.3329 27.7366L11.4311 27.6964C12.9043 27.6964 14.0427 27.4955 14.3105 25.7946C14.6186 24 13.4802 23.7991 11.9668 23.7991ZM50.0025 23.7991H49.3998C49.1588 23.7991 48.9981 23.933 48.9713 24.1607L48.4088 27.7366L49.4802 27.6964C51.2213 27.6964 52.4266 27.2946 52.4266 25.2857C52.4132 23.8661 51.1409 23.7991 50.0025 23.7991ZM78.3284 6.42857V53.5714C78.3284 57.1205 75.449 60 71.8998 60H7.61412C4.06501 60 1.18555 57.1205 1.18555 53.5714V6.42857C1.18555 2.87946 4.06501 0 7.61412 0H71.8998C75.449 0 78.3284 2.87946 78.3284 6.42857ZM18.3686 24.5625C18.3686 21.75 16.1989 20.8125 13.7213 20.8125H8.36412C8.0293 20.8125 7.69448 21.0804 7.66769 21.442L5.47126 35.1161C5.43108 35.3839 5.63198 35.6518 5.89983 35.6518H8.44448C8.80608 35.6518 9.1409 35.2634 9.18108 34.8884L9.78376 31.3259C9.91769 30.3616 11.5516 30.6964 12.1945 30.6964C16.0248 30.6964 18.3686 28.4196 18.3686 24.5625ZM29.6454 25.7411H27.1007C26.5918 25.7411 26.565 26.4777 26.5382 26.8393C25.7614 25.7009 24.6364 25.5 23.3641 25.5C20.0829 25.5 17.5784 28.3795 17.5784 31.5536C17.5784 34.1652 19.2123 35.8661 21.8239 35.8661C23.0293 35.8661 24.5293 35.2098 25.373 34.2723C25.3061 34.4732 25.2391 34.9018 25.2391 35.1027C25.2391 35.4107 25.373 35.6384 25.6677 35.6384H27.9713C28.3329 35.6384 28.6409 35.25 28.7079 34.875L30.0739 26.2634C30.1141 26.0089 29.9132 25.7411 29.6454 25.7411ZM35.0695 38.8527L43.6007 26.4509C43.6677 26.3839 43.6677 26.317 43.6677 26.2232C43.6677 25.9955 43.4668 25.7545 43.2391 25.7545H40.6677C40.44 25.7545 40.1989 25.8884 40.065 26.0893L36.5159 31.3125L35.0427 26.2902C34.9356 25.9955 34.6409 25.7545 34.3061 25.7545H31.8016C31.5739 25.7545 31.373 25.9955 31.373 26.2232C31.373 26.3839 33.9847 33.8304 34.2123 34.5402C33.8507 35.0491 31.4668 38.3705 31.4668 38.7723C31.4668 39.0134 31.6677 39.2009 31.8954 39.2009H34.4668C34.7079 39.1875 34.9355 39.0536 35.0695 38.8527ZM56.4043 24.5625C56.4043 21.75 54.2347 20.8125 51.757 20.8125H46.44C46.0784 20.8125 45.7436 21.0804 45.7034 21.442L43.5338 35.1027C43.507 35.3705 43.7079 35.6384 43.9623 35.6384H46.7079C46.9757 35.6384 47.1766 35.4375 47.2436 35.2098L47.8463 31.3259C47.9802 30.3616 49.6141 30.6964 50.257 30.6964C54.0605 30.6964 56.4043 28.4196 56.4043 24.5625ZM67.6811 25.7411H65.1364C64.6275 25.7411 64.6007 26.4777 64.5606 26.8393C63.8239 25.7009 62.6856 25.5 61.3864 25.5C58.1052 25.5 55.6007 28.3795 55.6007 31.5536C55.6007 34.1652 57.2347 35.8661 59.8463 35.8661C61.0918 35.8661 62.5918 35.2098 63.3954 34.2723C63.3552 34.4732 63.2614 34.9018 63.2614 35.1027C63.2614 35.4107 63.3954 35.6384 63.69 35.6384H66.007C66.3686 35.6384 66.6766 35.25 66.7436 34.875L68.1097 26.2634C68.1498 26.0089 67.949 25.7411 67.6811 25.7411ZM74.0427 21.2812C74.0427 21.0134 73.8418 20.8125 73.6141 20.8125H71.1364C70.9356 20.8125 70.7347 20.9732 70.7079 21.1741L68.5382 35.1027L68.4981 35.1696C68.4981 35.4107 68.6989 35.6384 68.9668 35.6384H71.1766C71.5114 35.6384 71.8463 35.25 71.8731 34.875L74.0427 21.3214V21.2812ZM61.9891 28.2187C60.3552 28.2187 59.0829 29.5179 59.0829 31.1652C59.0829 32.4643 60.0204 33.1741 61.2525 33.1741C62.8597 33.1741 64.1588 31.942 64.1588 30.2946C64.1722 28.9821 63.2347 28.2187 61.9891 28.2187Z" fill="#129CD9"/>
</svg>
