<svg width="128" height="24" viewBox="0 0 128 24" fill="none" xmlns="http://www.w3.org/2000/svg">
<g clip-path="url(#clip0_1_1223)">
<path d="M12 18.2857L4.14286 23L7.28571 14.937L1 8.85714H8.85714L12 1L15.1429 8.85714H23L16.7143 15.1429L19.8571 23L12 18.2857Z" fill="#F9C610" stroke="#F9C610" stroke-linecap="round" stroke-linejoin="round"/>
</g>
<g clip-path="url(#clip1_1_1223)">
<path d="M38 18.2857L30.1429 23L33.2857 14.937L27 8.85714H34.8571L38 1L41.1429 8.85714H49L42.7143 15.1429L45.8571 23L38 18.2857Z" fill="#F9C610" stroke="#F9C610" stroke-linecap="round" stroke-linejoin="round"/>
</g>
<g clip-path="url(#clip2_1_1223)">
<path d="M64 18.2857L56.1429 23L59.2857 14.937L53 8.85714H60.8571L64 1L67.1429 8.85714H75L68.7143 15.1429L71.8571 23L64 18.2857Z" fill="#F9C610" stroke="#F9C610" stroke-linecap="round" stroke-linejoin="round"/>
</g>
<g clip-path="url(#clip3_1_1223)">
<path d="M90 18.2857L82.1429 23L85.2857 14.937L79 8.85714H86.8571L90 1L93.1429 8.85714H101L94.7143 15.1429L97.8571 23L90 18.2857Z" fill="#F9C610" stroke="#F9C610" stroke-linecap="round" stroke-linejoin="round"/>
</g>
<g clip-path="url(#clip4_1_1223)">
<path d="M116 18.2857L108.143 23L111.286 14.937L105 8.85714H112.857L116 1L119.143 8.85714H127L120.714 15.1429L123.857 23L116 18.2857Z" stroke="#F9C610" stroke-linecap="round" stroke-linejoin="round"/>
<path d="M116 18.5V2L112.5 9H105L111.5 15L108.5 22.5L116 18.5Z" fill="#F9C610"/>
</g>
<defs>
<clipPath id="clip0_1_1223">
<rect width="24" height="24" fill="white"/>
</clipPath>
<clipPath id="clip1_1_1223">
<rect width="24" height="24" fill="white" transform="translate(26)"/>
</clipPath>
<clipPath id="clip2_1_1223">
<rect width="24" height="24" fill="white" transform="translate(52)"/>
</clipPath>
<clipPath id="clip3_1_1223">
<rect width="24" height="24" fill="white" transform="translate(78)"/>
</clipPath>
<clipPath id="clip4_1_1223">
<rect width="24" height="24" fill="white" transform="translate(104)"/>
</clipPath>
</defs>
</svg>
