<svg width="24" height="25" viewBox="0 0 24 25" fill="none" xmlns="http://www.w3.org/2000/svg">
<path d="M12.0007 13C13.2131 13 14.3758 12.5184 15.2331 11.661C16.0904 10.8037 16.5721 9.64098 16.5721 8.42856V5.38094C16.5721 4.16852 16.0904 3.00576 15.2331 2.14845C14.3758 1.29114 13.2131 0.809509 12.0007 0.809509C10.7882 0.809509 9.62547 1.29114 8.76816 2.14845C7.91085 3.00576 7.42922 4.16852 7.42922 5.38094V8.42856C7.42922 9.64098 7.91085 10.8037 8.76816 11.661C9.62547 12.5184 10.7882 13 12.0007 13ZM12.0007 13C17.0506 13 22.6673 16.1771 22.6673 21.0335V22.1428C22.6673 22.547 22.5068 22.9346 22.221 23.2203C21.9352 23.5061 21.5476 23.6667 21.1435 23.6667H2.85779C2.45365 23.6667 2.06607 23.5061 1.7803 23.2203C1.49453 22.9346 1.33398 22.547 1.33398 22.1428V21.0335C1.33398 16.1771 6.95075 13 12.0007 13Z" stroke="#0D0E13" stroke-linecap="round" stroke-linejoin="round"/>
</svg>
