<svg width="85" height="60" viewBox="0 0 85 60" fill="none" xmlns="http://www.w3.org/2000/svg">
<path d="M70.8325 40.9275L70.18 37.665H62.8713L61.7087 40.9012L55.8512 40.9125C59.62 31.89 62.4138 25.2 64.2363 20.8575C64.7125 19.7213 65.56 19.1438 66.805 19.1513C67.7575 19.1588 69.3137 19.1588 71.4737 19.1513L76 40.92L70.8325 40.9313V40.9275ZM64.5175 33.195H69.2275L67.465 25.02L64.5175 33.195ZM26.77 19.1475L32.6575 19.155L23.5562 40.9275L17.5938 40.9238C15.58 33.1613 14.0988 27.4012 13.1537 23.655C12.865 22.5037 12.2912 21.7013 11.1812 21.3225C10.195 20.985 8.5525 20.46 6.25 19.7513V19.1513H15.6587C17.2862 19.1513 18.235 19.9387 18.5425 21.5512L20.8675 33.885L26.77 19.1475ZM40.7463 19.155L36.0963 40.9238L30.49 40.9163L35.14 19.1475L40.7463 19.155ZM52.1162 18.75C53.7887 18.75 55.9038 19.2675 57.1188 19.7513L56.1362 24.2662C55.0375 23.8237 53.23 23.2275 51.7113 23.2537C49.4987 23.2875 48.1338 24.2138 48.1338 25.1025C48.1338 26.5425 50.5037 27.27 52.9487 28.8487C55.735 30.6487 56.0987 32.2613 56.065 34.0163C56.0275 37.6575 52.9487 41.25 46.45 41.25C43.4837 41.205 42.415 40.9575 40 40.1025L41.02 35.3925C43.48 36.42 44.5263 36.7463 46.6263 36.7463C48.5575 36.7463 50.2113 35.97 50.2262 34.6162C50.2337 33.6525 49.645 33.1763 47.4813 31.9838C45.3175 30.795 42.2875 29.1488 42.325 25.8337C42.3738 21.5962 46.405 18.75 52.1162 18.75Z" fill="#0764AB"/>
</svg>
