<svg width="32" height="32" viewBox="0 0 32 32" fill="none" xmlns="http://www.w3.org/2000/svg">
<path d="M16.0003 1.66669C13.5105 1.66936 11.0642 2.31997 8.90203 3.55453C6.73983 4.7891 4.93615 6.56512 3.66832 8.70799C2.4005 10.8509 1.71217 13.2868 1.67103 15.7763C1.62988 18.2658 2.23734 20.7231 3.43366 22.9067L1.66699 30.3334L9.09366 28.5667C11.0092 29.6175 13.1395 30.2165 15.322 30.3179C17.5044 30.4193 19.6811 30.0205 21.6858 29.1519C23.6905 28.2833 25.4701 26.9679 26.8887 25.3063C28.3072 23.6446 29.3271 21.6807 29.8704 19.5645C30.4137 17.4484 30.4661 15.236 30.0235 13.0965C29.581 10.957 28.6552 8.94704 27.3169 7.22012C25.9786 5.4932 24.2632 4.09506 22.3019 3.13256C20.3405 2.17006 18.1851 1.66866 16.0003 1.66669ZM8.83366 8.18002H12.7403C12.9171 8.18002 13.0867 8.25026 13.2117 8.37528C13.3368 8.50031 13.407 8.66988 13.407 8.84669C13.3851 9.73575 13.5345 10.6207 13.847 11.4534C13.9816 11.7321 14.0112 12.05 13.9303 12.3487C13.8495 12.6475 13.6637 12.9071 13.407 13.08L12.0403 14.4134C12.6463 15.5967 13.4386 16.6749 14.387 17.6067C15.3112 18.5705 16.385 19.3787 17.567 20L18.9003 18.6334C19.567 17.9667 19.8737 17.9667 20.527 18.1934C21.3596 18.5058 22.2446 18.6552 23.1337 18.6334C23.3079 18.6415 23.4727 18.7143 23.5961 18.8376C23.7194 18.9609 23.7922 19.1258 23.8003 19.3V23.2067C23.7922 23.3809 23.7194 23.5458 23.5961 23.6691C23.4727 23.7924 23.3079 23.8652 23.1337 23.8734C19.2121 23.7025 15.4948 22.0768 12.707 19.3134C9.93924 16.5285 8.31275 12.8095 8.14699 8.88669C8.14858 8.70318 8.22082 8.52735 8.34871 8.39574C8.47659 8.26414 8.65028 8.18687 8.83366 8.18002Z" stroke="#0D0E13" stroke-linecap="round" stroke-linejoin="round"/>
</svg>
